<?xml version="1.0" encoding="utf-8"?>
<!-- Generator: Adobe Illustrator 18.1.1, SVG Export Plug-In . SVG Version: 6.00 Build 0)  -->
<svg version="1.1" id="Layer_1" xmlns="http://www.w3.org/2000/svg" xmlns:xlink="http://www.w3.org/1999/xlink" x="0px" y="0px"
	 viewBox="0 0 1500 1500" enable-background="new 0 0 1500 1500" xml:space="preserve">
<path fill="none" stroke="#FFFFFF" stroke-width="2" stroke-miterlimit="10" d="M470.8,1500"/>
<path fill="none" stroke="#FFFFFF" stroke-width="2" stroke-miterlimit="10" d="M28.9,1298.6"/>
<path fill="none" stroke="#FFFFFF" stroke-width="2" stroke-miterlimit="10" d="M75.6,1342.8"/>
<path fill="none" stroke="#FFFFFF" stroke-width="3" stroke-miterlimit="10" d="M1388.7,970.5V114.7c0-56.1-45.9-102-102-102H215.9
	c-56.1,0-102,45.9-102,102V1313v12.7"/>
<path fill="none" stroke="#FFFFFF" stroke-width="2" stroke-miterlimit="10" d="M1388.7,970.5"/>
<path fill="none" stroke="#FFFFFF" stroke-width="3" stroke-miterlimit="10" d="M1458.4,153v873.7c0,0-5.1,71.4-40.8,92.6
	c-5.1,3.4-25.5,17.8-34.8,16.1c-25.5-5.9-55.2-15.3-86.7-88.4c-85-199.7-89.2-289-89.2-284.7S85.8,1386.1,81.6,1386.1
	c-4.2,0-21.2,51,29.7,38.2c51-12.7,1321.5-293.2,1321.5-293.2"/>
<rect x="1380.2" y="956.1" fill="none" stroke="#FFFFFF" stroke-miterlimit="10" width="17" height="16.1"/>
<line fill="none" stroke="#FFFFFF" stroke-width="3" stroke-miterlimit="10" x1="332.3" y1="335.7" x2="1165.2" y2="335.7"/>
<line fill="none" stroke="#FFFFFF" stroke-width="3" stroke-miterlimit="10" x1="332.3" y1="499.7" x2="1165.2" y2="499.7"/>
<path fill="none" stroke="#FFFFFF" stroke-width="3" stroke-miterlimit="10" d="M113.9,1198.3"/>
<path fill="none" stroke="#FFFFFF" stroke-width="3" stroke-miterlimit="10" d="M1388.7,964.6c0,0-12.7,165.7-52.7,40.8
	s-55.2-259.2-55.2-259.2"/>
<line fill="none" stroke="#FFFFFF" stroke-width="3" stroke-miterlimit="10" x1="113.9" y1="1369.1" x2="113.9" y2="1313"/>
</svg>
