<?xml version="1.0" encoding="utf-8"?>
<!-- Generator: Adobe Illustrator 18.1.1, SVG Export Plug-In . SVG Version: 6.00 Build 0)  -->
<svg version="1.1" id="Layer_1" xmlns="http://www.w3.org/2000/svg" xmlns:xlink="http://www.w3.org/1999/xlink" x="0px" y="0px"
	 viewBox="0 0 1500 1500" enable-background="new 0 0 1500 1500" xml:space="preserve">
<g>
	<path fill="#FFFFFF" d="M1438.4,153v872.9c-1.6,20.2-11.1,64.3-31,76.2l-0.9,0.5c-0.4,0.3-0.9,0.6-1.5,1
		c-12.2,8.3-17.9,10.9-20.4,11.7c-19.2-4.6-42.9-12.7-70.2-76.1c-73.4-172.6-85.9-262.1-87.6-278.3c-1.4-12.9-11.6-19.2-21.1-18.7
		c-4.6,0.2-8.8,2.1-12,4.9c-21.5,13.5-239.4,135.1-560.5,312.8c-211.5,117.1-404.9,223.6-499.3,275.3v-9.4V1313V114.7
		c0-45.2,36.8-82,82-82h1070.8c45.2,0,82,36.8,82,82v849c-0.3,3.3-1.5,17.5-4,33c-1.3,7.8-2.5,14.2-3.7,19.2
		c-1.7-4.5-3.7-10-5.9-16.7c-38.8-121.5-54.3-254.1-54.4-255.4l-39.7,4.5c0.6,5.6,16,137.7,56.1,263c6,18.6,11.7,32.2,17.5,41.4
		c9.7,15.4,20.3,19.1,28.5,19.1c1.1,0,2.1-0.1,3.1-0.2c23-2.7,31.3-30.8,36.8-60.8c3-16.6,4.8-32.9,5.5-40.5h0.4V114.7
		c0-67.3-54.7-122-122-122H215.9c-67.3,0-122,54.7-122,122V1313v12.7v31.2c-10.1,5.5-16.7,9-19.4,10.4c-4.6,1.7-9.8,5.4-13.6,13.5
		c-4.9,10.4-10.5,34.5,3.4,51.6c5.6,6.9,15.5,13.9,32.5,13.9c5.7,0,12.1-0.8,19.4-2.6c49-12.3,1202.9-273.4,1268.2-288.2
		c0,0,0,0,0,0c12.5,0,26.4-7.6,43-18.8c0.3-0.2,0.6-0.4,0.9-0.6c43-26.1,49.4-99.8,50-108.1l0.1-0.7V153H1438.4z M106.5,1405
		c-5.9,1.5-9.3,1.5-11,1.4c-0.1-1.4,0.2-3.4,0.5-5.1c2.3-1.2,5-2.7,8.4-4.5c8.3-4.5,20.5-11.1,36.3-19.7
		c30.4-16.6,73.5-40.2,128.1-70.3c106.4-58.5,247.3-136.3,386.6-213.5c151.3-83.8,288.4-159.9,385.9-214.3
		c55-30.7,97.7-54.7,127.1-71.3c8.9-5,16.6-9.4,23.1-13.1c8.3,43.8,30,128.6,86.1,260.3c15.6,36.2,31.3,58.7,46.9,73.1
		C1085.5,1182.2,151.6,1393.7,106.5,1405z"/>
	<rect x="332.3" y="315.7" fill="#FFFFFF" width="832.9" height="40"/>
	<rect x="332.3" y="479.7" fill="#FFFFFF" width="832.9" height="40"/>
</g>
</svg>
